<svg height="512pt" viewBox="-21 0 512 512.00003" width="512pt" xmlns="http://www.w3.org/2000/svg" xmlns:xlink="http://www.w3.org/1999/xlink"><linearGradient id="a" gradientUnits="userSpaceOnUse" x1="121.7449416186" x2="347.5180645128" y1="136.240246776" y2="362.0134700624"><stop offset="0" stop-color="#ffe548"/><stop offset=".2465" stop-color="#ffdf41"/><stop offset=".5924" stop-color="#ffce2f"/><stop offset=".9956" stop-color="#ffb211"/><stop offset="1" stop-color="#ffb211"/></linearGradient><radialGradient id="b" cx="194.605283514" cy="151.4583991974" gradientUnits="userSpaceOnUse" r="291.7903308688"><stop offset="0" stop-color="#ffe548"/><stop offset=".4348" stop-color="#ffe346"/><stop offset=".6388" stop-color="#ffdc3e"/><stop offset=".7947" stop-color="#ffd032"/><stop offset=".9254" stop-color="#ffbf1f"/><stop offset="1" stop-color="#ffb211"/></radialGradient><linearGradient id="c"><stop offset="0" stop-color="#ffb211" stop-opacity="0"/><stop offset=".1624" stop-color="#ffaa14" stop-opacity=".160784"/><stop offset=".4095" stop-color="#ff951e" stop-opacity=".407843"/><stop offset=".7088" stop-color="#ff732d" stop-opacity=".709804"/><stop offset="1" stop-color="#ff4b3e"/></linearGradient><linearGradient id="d" gradientUnits="userSpaceOnUse" x1="234.524234" x2="234.524234" xlink:href="#c" y1="427.7491783082" y2="365.9334842958"/><linearGradient id="e" gradientUnits="userSpaceOnUse" x1="234.524234" x2="234.524234" xlink:href="#c" y1="387.112825161" y2="310.2822729322"/><linearGradient id="f" gradientUnits="userSpaceOnUse" x1="234.524234" x2="234.524234" xlink:href="#c" y1="355.6339473212" y2="254.6124890116"/><linearGradient id="g" gradientUnits="userSpaceOnUse" x1="376.4187702644" x2="376.4187702644" xlink:href="#c" y1="302.4060028812" y2="227.1651611394"/><linearGradient id="h" gradientUnits="userSpaceOnUse" x1="102.0392578572" x2="102.0392578572" xlink:href="#c" y1="302.4060028812" y2="227.1651611394"/><linearGradient id="i" gradientUnits="userSpaceOnUse" x1="266.3282821756" x2="192.496043392" xlink:href="#c" y1="354.4084597358" y2="140.3520101114"/><linearGradient id="j" gradientUnits="userSpaceOnUse" x1="392.2703974678" x2="279.5188133336" xlink:href="#c" y1="383.3933945432" y2="215.124421848"/><linearGradient id="k"><stop offset="0" stop-color="#ffb2bc"/><stop offset=".5563" stop-color="#ffb0bb"/><stop offset=".7585" stop-color="#ffa9b6"/><stop offset=".9024" stop-color="#ff9eae"/><stop offset="1" stop-color="#ff90a4"/></linearGradient><linearGradient id="l" gradientUnits="userSpaceOnUse" x1="234.524234" x2="234.524234" xlink:href="#k" y1="192.6652812172" y2="323.9673360674"/><linearGradient id="m" gradientUnits="userSpaceOnUse" x1="274.398007996" x2="224.4434516292" xlink:href="#c" y1="435.5316820444" y2="385.5771256776"/><linearGradient id="n"><stop offset="0" stop-color="#a3ffff"/><stop offset="1" stop-color="#1ccbf7"/></linearGradient><linearGradient id="o" gradientUnits="userSpaceOnUse" x1="220.4109981318" x2="255.2312295642" xlink:href="#n" y1="381.5466800242" y2="416.3669114566"/><linearGradient id="p" gradientUnits="userSpaceOnUse" x1="95.1370933228" x2="373.9114750694" y1="261.3822362342" y2="261.3822362342"><stop offset="0" stop-color="#575c55"/><stop offset="1" stop-color="#45425a"/></linearGradient><radialGradient id="q" cx="203.5616732448" cy="11.1148220308" gradientUnits="userSpaceOnUse" r="76.4794807054"><stop offset="0" stop-color="#a3ffff"/><stop offset=".4077" stop-color="#a1feff"/><stop offset=".5545" stop-color="#9afafe"/><stop offset=".6592" stop-color="#8ff4fc"/><stop offset=".7439" stop-color="#7eeafa"/><stop offset=".8164" stop-color="#68def7"/><stop offset=".8806" stop-color="#4ccff3"/><stop offset=".9386" stop-color="#2cbdee"/><stop offset=".9902" stop-color="#08a9e9"/><stop offset="1" stop-color="#00a5e8"/></radialGradient><linearGradient id="r" gradientUnits="userSpaceOnUse" x1="234.524234" x2="234.524234" xlink:href="#k" y1="454.6854094902" y2="482.5746638268"/><linearGradient id="s" gradientUnits="userSpaceOnUse" x1="234.524234" x2="234.524234" xlink:href="#n" y1="482.5696442168" y2="514.4712736108"/><path d="m37.078125 265.582031 197.636719-218.355469 197.277344 218.351563c1.523437 1.683594 3.691406 2.648437 5.964843 2.648437 6.96875 0 10.636719-8.257812 5.964844-13.425781l-209.195313-231.539062-209.570312 231.53125c-4.675781 5.167969-1.007812 13.433593 5.960938 13.433593 2.269531 0 4.4375-.960937 5.960937-2.644531zm0 0" fill="url(#a)"/><path d="m294.648438 287.3125c0 28.089844-22.773438 50.863281-50.863282 50.863281-28.09375 0-50.867187-22.773437-50.867187-50.863281 0-13.871094-11.242188-25.109375-25.109375-25.109375h-161.371094l16.71875 36.648437c37.765625 82.785157 120.378906 135.902344 211.367188 135.902344 90.992187 0 173.605468-53.117187 211.367187-135.902344l16.71875-36.648437h-142.851563c-13.867187 0-25.109374 11.238281-25.109374 25.109375zm0 0" fill="url(#b)"/><path d="m100.355469 392.082031c38.476562 27.21875 85.101562 42.671875 134.167969 42.671875 49.066406 0 95.695312-15.453125 134.167968-42.671875-41.359375 4.542969-86.667968 7.046875-134.167968 7.046875s-92.808594-2.503906-134.167969-7.046875zm0 0" fill="url(#d)"/><path d="m421.867188 339.824219c-54.289063 9.089843-118.511719 14.347656-187.34375 14.347656-68.828126 0-133.054688-5.257813-187.34375-14.347656 14.90625 20.328125 32.90625 37.925781 53.175781 52.261719 41.359375 4.539062 86.667969 7.042968 134.167969 7.042968 47.503906 0 92.808593-2.503906 134.171874-7.042968 20.265626-14.335938 38.265626-31.933594 53.171876-52.261719zm0 0" fill="url(#e)"/><path d="m243.785156 338.175781c-20.445312 0-38.066406-12.070312-46.144531-29.46875-66.890625-1.851562-128.226563-8.691406-178.699219-19.097656l4.214844 9.242187c6.675781 14.628907 14.753906 28.324219 24.023438 40.972657 54.289062 9.089843 118.515624 14.347656 187.34375 14.347656 68.832031 0 133.054687-5.257813 187.34375-14.347656 9.273437-12.648438 17.351562-26.34375 24.023437-40.972657l4.214844-9.242187c-45.699219 9.421875-100.304688 15.917969-159.878907 18.441406-7.9375 17.75-25.738281 30.125-46.441406 30.125zm0 0" fill="url(#f)"/><path d="m319.757812 262.203125c-13.867187 0-25.109374 11.238281-25.109374 25.109375 0 7.386719-1.585938 14.402344-4.421876 20.734375 59.574219-2.519531 114.179688-9.015625 159.878907-18.441406l12.503906-27.40625h-142.851563zm0 0" fill="url(#g)"/><path d="m192.921875 287.3125c0-13.871094-11.242187-25.109375-25.113281-25.109375h-161.371094l12.503906 27.40625c50.472656 10.40625 111.808594 17.246094 178.699219 19.097656-3.023437-6.503906-4.71875-13.75-4.71875-21.394531zm0 0" fill="url(#h)"/><path d="m445.890625 298.851562 16.71875-36.648437h-142.851563c-13.867187 0-25.109374 11.238281-25.109374 25.109375 0 28.089844-22.773438 50.863281-50.863282 50.863281-28.09375 0-50.867187-22.773437-50.867187-50.863281 0-13.871094-11.242188-25.109375-25.109375-25.109375h-161.371094l6.960938 15.253906 144.1875 144.1875c24.3125 8.539063 50.265624 13.109375 76.9375 13.109375 90.992187 0 173.605468-53.117187 211.367187-135.902344zm0 0" fill="url(#i)"/><path d="m445.890625 298.851562 16.71875-36.648437h-142.851563c-13.867187 0-25.109374 11.238281-25.109374 25.109375 0 28.089844-22.773438 50.863281-50.863282 50.863281-16.503906 0-31.160156-7.863281-40.453125-20.042969v9.457032l97.507813 97.503906c63.296875-18.855469 116.761718-64.222656 145.050781-126.242188zm0 0" fill="url(#j)"/><path d="m243.785156 344.613281c-31.597656 0-57.304687-25.703125-57.304687-57.300781 0-10.296875-8.375-18.671875-18.671875-18.671875h-161.371094c-3.554688 0-6.4375-2.882813-6.4375-6.4375 0-3.558594 2.882812-6.441406 6.4375-6.441406h161.371094c17.398437 0 31.550781 14.152343 31.550781 31.550781 0 24.496094 19.929687 44.425781 44.425781 44.425781s44.425782-19.929687 44.425782-44.425781c0-17.398438 14.152343-31.550781 31.546874-31.550781h142.851563c3.554687 0 6.4375 2.882812 6.4375 6.441406 0 3.554687-2.882813 6.4375-6.4375 6.4375h-142.851563c-10.292968 0-18.667968 8.375-18.667968 18.671875 0 31.597656-25.707032 57.300781-57.304688 57.300781zm0 0" fill="url(#l)"/><path d="m302.472656 424.59375-42.816406-42.816406c-1.632812-1.914063-3.953125-3.308594-6.820312-3.722656-.660157-.097657-1.296876-.269532-1.917969-.476563l-8.035157-7.976563c-4.957031-5.753906-14.683593-4.972656-18.3125 2.378907-1.617187 3.277343-4.742187 5.546875-8.359374 6.074219-9.105469 1.320312-12.738282 12.511718-6.152344 18.933593 2.617187 2.550781 3.8125 6.226563 3.195312 9.824219-.71875 4.183594.917969 7.902344 3.691406 10.28125l17.660157 17.660156c23.382812-.007812 46.210937-3.53125 67.867187-10.160156zm0 0" fill="url(#m)"/><path d="m244.480469 371.980469c1.617187 3.277343 4.742187 5.546875 8.355469 6.074219 9.105468 1.320312 12.742187 12.511718 6.152343 18.933593-2.613281 2.550781-3.808593 6.226563-3.191406 9.824219 1.554687 9.070312-7.960937 15.984375-16.105469 11.703125-3.234375-1.699219-7.097656-1.699219-10.332031 0-8.144531 4.28125-17.664063-2.632813-16.105469-11.703125.617188-3.597656-.578125-7.273438-3.195312-9.824219-6.585938-6.421875-2.953125-17.613281 6.152344-18.933593 3.617187-.527344 6.742187-2.796876 8.359374-6.074219 4.070313-8.25 15.835938-8.25 19.910157 0zm0 0" fill="url(#o)"/><path d="m373.910156 504.839844h-278.773437l139.386719-486.914063zm-257.121094-15.777344h235.472657l-117.738281-419.65625zm0 0" fill="url(#p)"/><path d="m278.191406 43.664062c0 24.117188-19.550781 43.667969-43.667968 43.667969-24.113282 0-43.664063-19.550781-43.664063-43.667969 0-24.113281 19.550781-43.664062 43.664063-43.664062 24.117187 0 43.667968 19.550781 43.667968 43.664062zm0 0" fill="url(#q)"/><path d="m396.773438 498.328125h-324.5c-8.945313 0-16.195313-7.25-16.195313-16.195313 0-8.941406 7.25-16.191406 16.195313-16.191406h324.5c8.945312 0 16.195312 7.25 16.195312 16.191406 0 8.945313-7.25 16.195313-16.195312 16.195313zm0 0" fill="url(#r)"/><path d="m443.339844 512h-417.632813c-8.945312 0-16.195312-7.25-16.195312-16.195312 0-8.941407 7.25-16.191407 16.195312-16.191407h417.636719c8.941406 0 16.191406 7.25 16.191406 16.191407 0 8.945312-7.25 16.195312-16.195312 16.195312zm0 0" fill="url(#s)"/></svg>